HIERARCHY
ROOT joint_Root
{
	OFFSET 0.0 0.0 0.0
	CHANNELS 6 Xposition Yposition Zposition Zrotation Xrotation Yrotation 
	JOINT Hips
	{
		OFFSET -0.726466 93.3139 -2.00062
		CHANNELS 6 Xposition Yposition Zposition Zrotation Xrotation Yrotation 
		JOINT Spine
		{
			OFFSET 15.7357 0.0 0.0
			CHANNELS 6 Xposition Yposition Zposition Zrotation Xrotation Yrotation 
			JOINT Chest
			{
				OFFSET 8.98455 -0.406207 0.0
				CHANNELS 6 Xposition Yposition Zposition Zrotation Xrotation Yrotation 
				JOINT Neck
				{
					OFFSET 16.3773 0.0 0.0
					CHANNELS 6 Xposition Yposition Zposition Zrotation Xrotation Yrotation 
					JOINT Head
					{
						OFFSET 6.45672 0.0 0.0
						CHANNELS 6 Xposition Yposition Zposition Zrotation Xrotation Yrotation 
						End Site
						{
							OFFSET 0.0 0.0 0.0
						}
					}
				}
				JOINT Shoulder_L
				{
					OFFSET 12.9942 -0.242716 4.98039
					CHANNELS 6 Xposition Yposition Zposition Zrotation Xrotation Yrotation 
					JOINT UpperArm_L
					{
						OFFSET 5.34809 0.0 0.0
						CHANNELS 6 Xposition Yposition Zposition Zrotation Xrotation Yrotation 
						JOINT LowerArm_L
						{
							OFFSET 24.3286 1.87007e-05 0.0
							CHANNELS 6 Xposition Yposition Zposition Zrotation Xrotation Yrotation 
							JOINT Hand_L
							{
								OFFSET 22.2916 0.0 0.0
								CHANNELS 6 Xposition Yposition Zposition Zrotation Xrotation Yrotation 
								End Site
								{
									OFFSET 0.0 0.0 0.0
								}
							}
						}
					}
				}
				JOINT Shoulder_R
				{
					OFFSET 12.9945 -0.242716 -4.98039
					CHANNELS 6 Xposition Yposition Zposition Zrotation Xrotation Yrotation 
					JOINT UpperArm_R
					{
						OFFSET -5.34813 0.0 0.0
						CHANNELS 6 Xposition Yposition Zposition Zrotation Xrotation Yrotation 
						JOINT LowerArm_R
						{
							OFFSET -24.3289 0.000322201 0.0
							CHANNELS 6 Xposition Yposition Zposition Zrotation Xrotation Yrotation 
							JOINT Hand_R
							{
								OFFSET -22.2915 -0.000108084 0.0
								CHANNELS 6 Xposition Yposition Zposition Zrotation Xrotation Yrotation 
								End Site
								{
									OFFSET 0.0 0.0 0.0
								}
							}
						}
					}
				}
			}
		}
		JOINT UpperLeg_L
		{
			OFFSET -2.19248 -6.46944 0.0
			CHANNELS 6 Xposition Yposition Zposition Zrotation Xrotation Yrotation 
			JOINT LowerLeg_L
			{
				OFFSET 39.0811 0.0 -1.23785e-05
				CHANNELS 6 Xposition Yposition Zposition Zrotation Xrotation Yrotation 
				JOINT Foot_L
				{
					OFFSET 40.9854 0.0 -1.26872e-05
					CHANNELS 6 Xposition Yposition Zposition Zrotation Xrotation Yrotation 
					JOINT Toes_L
					{
						OFFSET 11.7543 0.0 0.0
						CHANNELS 6 Xposition Yposition Zposition Zrotation Xrotation Yrotation 
						End Site
						{
							OFFSET 0.0 0.0 0.0
						}
					}
				}
			}
		}
		JOINT UpperLeg_R
		{
			OFFSET -2.19251 6.46944 0.0
			CHANNELS 6 Xposition Yposition Zposition Zrotation Xrotation Yrotation 
			JOINT LowerLeg_R
			{
				OFFSET -39.0811 -0.00228153 -0.0401928
				CHANNELS 6 Xposition Yposition Zposition Zrotation Xrotation Yrotation 
				JOINT Foot_R
				{
					OFFSET -40.9854 0.0 0.0
					CHANNELS 6 Xposition Yposition Zposition Zrotation Xrotation Yrotation 
					JOINT Toes_R
					{
						OFFSET -11.7543 0.0 0.0
						CHANNELS 6 Xposition Yposition Zposition Zrotation Xrotation Yrotation 
						End Site
						{
							OFFSET 0.0 0.0 0.0
						}
					}
				}
			}
		}
	}
}
MOTION
Frames:	9
Frame Time:	0.0333333
0.000000 0.000000 0.000000 0.000000 0.000000 -0.000000 -1.195010 92.884200 -0.732863 89.039800 -2.580210 2.557970 15.735700 0.000005 -0.000001 92.005900 86.369300 -91.911200 8.984550 -0.406207 -0.000000 -0.509234 0.247269 0.190469 16.377300 -0.000001 -0.000001 3.407670 -2.396770 2.425200 6.456720 -0.000001 -0.000000 8.155410 -1.831750 -4.174750 12.994200 -0.242716 4.980390 -90.796200 2.483740 -72.219100 5.348090 -0.000007 -0.000001 -68.892600 33.318000 -11.756200 24.328600 0.000019 0.000005 5.385870 12.363400 -23.761700 22.291600 -0.000001 0.000005 2.865920 5.480160 -5.753020 12.994500 -0.242716 -4.980390 87.612100 7.738610 -72.792600 -5.348130 -0.000001 -0.000004 -64.614900 41.801100 -11.047800 -24.328900 0.000322 -0.000009 3.200410 8.925340 -19.825400 -22.291500 -0.000108 -0.000004 6.609600 5.364190 -1.807680 -2.192480 -6.469440 -0.000000 -176.469000 -7.551650 -1.472770 39.081100 -0.000007 -0.000012 -0.058654 0.187533 17.368000 40.985400 -0.000006 -0.000013 -0.460703 3.887200 -63.470100 11.754300 -0.000000 0.000003 -0.000003 -0.000041 -16.579100 -2.192510 6.469440 -0.000001 179.689000 9.724970 179.977000 -39.081100 -0.002282 -0.040193 -0.052116 0.204937 15.139000 -40.985400 0.000008 0.000006 1.701400 7.399510 -62.962300 -11.754300 -0.000006 -0.000006 -0.005799 -0.068995 -19.380900
0.000000 0.000000 0.000000 0.000000 0.000000 -0.000000 -1.215760 92.878100 -0.770140 89.029500 -2.543850 2.543260 15.735700 0.000005 -0.000001 92.087400 86.358200 -91.974900 8.984550 -0.406207 -0.000000 -0.487484 0.257138 0.226049 16.377300 -0.000001 -0.000001 3.392150 -2.363040 2.508670 6.456720 -0.000001 -0.000000 8.118640 -1.763160 -4.338720 12.994200 -0.242716 4.980390 -90.922700 2.862080 -72.123100 5.348090 -0.000007 -0.000001 -68.424300 29.887300 -11.522600 24.328600 0.000019 0.000005 6.297790 12.073900 -27.822900 22.291600 -0.000001 0.000005 3.486550 5.488910 -6.085790 12.994500 -0.242716 -4.980390 87.639500 7.654850 -72.804600 -5.348130 -0.000001 -0.000004 -64.789600 41.566200 -10.975300 -24.328900 0.000322 -0.000009 3.208290 8.969310 -19.781400 -22.291500 -0.000108 -0.000004 6.601010 5.365410 -1.845100 -2.192480 -6.469440 -0.000000 -176.443000 -7.529380 -1.574400 39.081100 -0.000007 -0.000012 -0.059906 0.190388 17.466200 40.985400 -0.000006 -0.000013 -0.473759 3.908220 -63.480800 11.754300 -0.000000 0.000003 -0.000002 -0.000031 -16.578700 -2.192510 6.469440 -0.000001 179.714000 9.781400 179.892000 -39.081100 -0.002282 -0.040193 -0.052470 0.205001 15.226600 -40.985400 0.000008 0.000006 1.723860 7.421730 -62.982200 -11.754300 -0.000006 -0.000006 -0.005965 -0.070513 -19.442800
0.000000 0.000000 0.000000 0.000000 0.000000 -0.000000 -1.249020 92.887800 -0.811577 89.002400 -2.431730 2.558400 15.735700 0.000005 -0.000001 92.884000 86.340800 -92.748900 8.984550 -0.406207 -0.000000 -0.457346 0.358442 0.271614 16.377300 -0.000001 -0.000001 3.412540 -2.315570 2.548130 6.456720 -0.000001 -0.000000 8.018570 -1.820200 -4.419910 12.994200 -0.242716 4.980390 -91.051700 3.226420 -71.934900 5.348090 -0.000007 -0.000001 -66.736100 26.627100 -12.197100 24.328600 0.000019 0.000005 5.466410 8.158610 -34.007500 22.291600 -0.000001 0.000005 6.073140 5.522770 -7.456310 12.994500 -0.242716 -4.980390 87.648700 7.594660 -72.741000 -5.348130 -0.000001 -0.000004 -64.917900 41.491400 -10.841200 -24.328900 0.000322 -0.000009 3.162850 8.840280 -19.782900 -22.291500 -0.000108 -0.000004 6.565890 5.362600 -1.758870 -2.192480 -6.469440 -0.000000 -176.387000 -7.520090 -1.586860 39.081100 -0.000007 -0.000012 -0.059636 0.189882 17.435800 40.985400 -0.000006 -0.000013 -0.488503 3.982980 -63.422300 11.754300 -0.000000 0.000003 -0.000002 -0.000036 -16.578900 -2.192510 6.469440 -0.000001 179.774000 9.896890 179.950000 -39.081100 -0.002282 -0.040193 -0.050973 0.201108 15.110600 -40.985400 0.000008 0.000006 1.746100 7.380990 -62.911800 -11.754300 -0.000006 -0.000006 -0.005801 -0.069018 -19.381900
0.000000 0.000000 0.000000 0.000000 0.000000 -0.000000 -1.312930 92.884900 -0.871795 89.024500 -2.175220 2.625420 15.735700 0.000005 -0.000001 93.615300 86.302000 -93.486600 8.984550 -0.406207 -0.000000 -0.385204 0.457114 0.258783 16.377300 -0.000001 -0.000001 3.508060 -2.290810 2.550550 6.456720 -0.000001 -0.000000 7.928780 -1.971870 -4.316170 12.994200 -0.242716 4.980390 -91.105100 3.321070 -71.583700 5.348090 -0.000007 -0.000001 -64.251300 23.107600 -14.385700 24.328600 0.000019 0.000005 6.303940 7.002070 -42.174600 22.291600 -0.000001 0.000005 9.326310 5.552520 -8.811130 12.994500 -0.242716 -4.980390 87.650400 7.619340 -72.805000 -5.348130 -0.000001 -0.000004 -65.027100 41.385500 -10.585200 -24.328900 0.000322 -0.000009 3.184910 8.891550 -19.805300 -22.291500 -0.000108 -0.000004 6.568050 5.363550 -1.787970 -2.192480 -6.469440 -0.000000 -176.362000 -7.327240 -1.613990 39.081100 -0.000007 -0.000012 -0.059664 0.189471 17.479100 40.985400 -0.000006 -0.000013 -0.513552 4.099830 -63.382100 11.754300 -0.000000 0.000003 -0.000001 -0.000022 -16.578300 -2.192510 6.469440 -0.000001 179.778000 10.130500 179.959000 -39.081100 -0.002282 -0.040193 -0.050943 0.199891 15.190300 -40.985400 0.000008 0.000006 1.796520 7.373320 -62.940400 -11.754300 -0.000006 -0.000006 -0.005944 -0.070324 -19.435100
0.000000 0.000000 0.000000 0.000000 0.000000 -0.000000 -1.403710 92.890000 -0.956042 89.055800 -1.740600 2.664280 15.735700 0.000005 -0.000001 94.448600 86.277000 -94.327700 8.984550 -0.406207 -0.000000 -0.343114 0.568862 0.243208 16.377300 -0.000001 -0.000001 3.672270 -2.303290 2.489240 6.456720 -0.000001 -0.000000 7.900340 -2.274580 -4.141140 12.994200 -0.242716 4.980390 -91.049000 3.117850 -71.393600 5.348090 -0.000007 -0.000001 -61.708900 18.715400 -17.918400 24.328600 0.000019 0.000005 8.604280 6.969160 -51.267400 22.291600 -0.000001 0.000005 11.608400 5.567040 -9.532550 12.994500 -0.242716 -4.980390 87.672500 7.575280 -72.864600 -5.348130 -0.000001 -0.000004 -65.112800 41.490800 -10.436900 -24.328900 0.000322 -0.000009 3.183390 8.957970 -19.662200 -22.291500 -0.000108 -0.000004 6.555990 5.362870 -1.767490 -2.192480 -6.469440 -0.000000 -176.326000 -7.137970 -1.698890 39.081100 -0.000007 -0.000012 -0.061130 0.194186 17.474200 40.985400 -0.000006 -0.000013 -0.541774 4.335190 -63.268000 11.754300 -0.000000 0.000003 -0.000002 -0.000023 -16.578400 -2.192510 6.469440 -0.000001 179.803000 10.451200 179.970000 -39.081100 -0.002282 -0.040193 -0.051169 0.200636 15.196600 -40.985400 0.000008 0.000006 1.845030 7.243390 -62.928800 -11.754300 -0.000006 -0.000006 -0.005853 -0.069496 -19.401400
0.000000 0.000000 0.000000 0.000000 0.000000 -0.000000 -1.503010 92.898900 -1.041560 89.083100 -1.243620 2.751720 15.735700 0.000005 -0.000001 94.860800 86.257400 -94.762700 8.984550 -0.406207 -0.000000 -0.308228 0.627207 0.197635 16.377300 -0.000001 -0.000001 3.834470 -2.438230 2.442200 6.456720 -0.000001 -0.000000 8.023800 -2.483180 -3.998520 12.994200 -0.242716 4.980390 -90.948900 2.830250 -71.456100 5.348090 -0.000007 -0.000001 -59.580800 13.089600 -22.056800 24.328600 0.000019 0.000005 9.262410 5.214850 -60.878100 22.291600 -0.000001 0.000005 13.852900 5.583620 -10.393300 12.994500 -0.242716 -4.980390 87.667500 7.597930 -72.877600 -5.348130 -0.000001 -0.000004 -65.146300 41.628300 -10.382900 -24.328900 0.000322 -0.000009 3.160620 9.058440 -19.333100 -22.291500 -0.000108 -0.000004 6.502360 5.362170 -1.745760 -2.192480 -6.469440 -0.000000 -176.276000 -6.883660 -1.716030 39.081100 -0.000007 -0.000012 -0.060593 0.193021 17.428000 40.985400 -0.000006 -0.000013 -0.573355 4.609450 -63.135700 11.754300 -0.000000 0.000003 -0.000001 -0.000020 -16.578300 -2.192510 6.469440 -0.000001 179.839000 10.823500 -179.937000 -39.081100 -0.002282 -0.040193 -0.050100 0.197361 15.148300 -40.985400 0.000008 0.000006 1.899910 7.071220 -62.896500 -11.754300 -0.000006 -0.000006 -0.005976 -0.070622 -19.447300
0.000000 0.000000 0.000000 0.000000 0.000000 -0.000000 -1.599330 92.901700 -1.114080 89.143400 -0.809563 2.778730 15.735700 0.000005 -0.000001 95.014600 86.261600 -94.937400 8.984550 -0.406207 -0.000000 -0.318334 0.647944 0.156110 16.377300 -0.000001 -0.000001 3.968150 -2.571620 2.353550 6.456720 -0.000001 -0.000000 8.073920 -2.689710 -3.921090 12.994200 -0.242716 4.980390 -90.800700 2.413290 -71.640100 5.348090 -0.000007 -0.000001 -58.527400 6.418710 -26.897600 24.328600 0.000019 0.000005 8.681040 3.137510 -70.281700 22.291600 -0.000001 0.000005 15.792500 5.593070 -10.933200 12.994500 -0.242716 -4.980390 87.677900 7.558640 -72.866700 -5.348130 -0.000001 -0.000004 -65.186400 41.606900 -10.449000 -24.328900 0.000322 -0.000009 3.176900 9.267970 -19.021700 -22.291500 -0.000108 -0.000004 6.562480 5.362790 -1.764640 -2.192480 -6.469440 -0.000000 -176.269000 -6.728840 -1.787990 39.081100 -0.000007 -0.000012 -0.060466 0.192986 17.396600 40.985400 -0.000006 -0.000013 -0.602646 4.858090 -63.019200 11.754300 -0.000000 0.000003 -0.000002 -0.000034 -16.578800 -2.192510 6.469440 -0.000001 179.849000 11.060000 -179.958000 -39.081100 -0.002282 -0.040193 -0.050879 0.199467 15.204000 -40.985400 0.000008 0.000006 1.944410 6.862610 -62.914200 -11.754300 -0.000006 -0.000006 -0.005909 -0.070006 -19.422200
0.000000 0.000000 0.000000 0.000000 0.000000 -0.000000 -1.699460 92.907400 -1.198980 89.165900 -0.489899 2.751160 15.735700 0.000005 -0.000001 94.710800 86.286500 -94.639200 8.984550 -0.406207 -0.000000 -0.364531 0.604731 0.145194 16.377300 -0.000001 -0.000001 4.012160 -2.638180 2.206180 6.456720 -0.000001 -0.000000 8.113300 -2.848700 -3.832550 12.994200 -0.242716 4.980390 -90.638700 1.955120 -71.906400 5.348090 -0.000007 -0.000001 -59.036100 -1.213030 -32.476300 24.328600 0.000019 0.000005 10.129200 1.994230 -78.968000 22.291600 -0.000001 0.000005 16.554700 5.595330 -11.065900 12.994500 -0.242716 -4.980390 87.679300 7.565750 -72.891800 -5.348130 -0.000001 -0.000004 -65.122700 41.476400 -10.533900 -24.328900 0.000322 -0.000009 3.180820 9.280930 -19.019000 -22.291500 -0.000108 -0.000004 6.623780 5.361590 -1.728230 -2.192480 -6.469440 -0.000000 -176.228000 -6.610700 -1.906670 39.081100 -0.000007 -0.000012 -0.060776 0.194303 17.369000 40.985400 -0.000006 -0.000013 -0.635798 5.088660 -62.910200 11.754300 -0.000000 0.000003 -0.000003 -0.000040 -16.579100 -2.192510 6.469440 -0.000001 179.908000 11.272200 179.972000 -39.081100 -0.002282 -0.040193 -0.049881 0.195755 15.206900 -40.985400 0.000008 0.000006 2.005020 6.767030 -62.889400 -11.754300 -0.000006 -0.000006 -0.005776 -0.068784 -19.372300
0.000000 0.000000 0.000000 0.000000 0.000000 -0.000000 -1.771770 92.920700 -1.248800 89.206200 -0.378417 2.789800 15.735700 0.000005 -0.000001 94.686100 86.280300 -94.624600 8.984550 -0.406207 -0.000000 -0.351853 0.603284 0.124892 16.377300 -0.000001 -0.000001 4.079080 -2.756720 2.100090 6.456720 -0.000001 -0.000000 8.019470 -2.947870 -3.838720 12.994200 -0.242716 4.980390 -90.461200 1.446800 -72.317200 5.348090 -0.000007 -0.000001 -60.632600 -8.726340 -39.012800 24.328600 0.000019 0.000005 11.473200 0.871622 -85.712000 22.291600 -0.000001 0.000005 17.733200 5.600370 -11.361800 12.994500 -0.242716 -4.980390 87.662700 7.608530 -72.867300 -5.348130 -0.000001 -0.000004 -64.897400 41.382400 -10.721900 -24.328900 0.000322 -0.000009 3.180380 9.166240 -19.235100 -22.291500 -0.000108 -0.000004 6.694270 5.364120 -1.805470 -2.192480 -6.469440 -0.000000 -176.222000 -6.557280 -1.837750 39.081100 -0.000007 -0.000012 -0.059783 0.192942 17.215500 40.985400 -0.000006 -0.000013 -0.684759 5.125480 -62.786600 11.754300 -0.000000 0.000003 -0.000002 -0.000031 -16.578700 -2.192510 6.469440 -0.000001 179.911000 11.436800 -179.972000 -39.081100 -0.002282 -0.040193 -0.050423 0.198780 15.131800 -40.985400 0.000008 0.000006 2.054920 6.747310 -62.840000 -11.754300 -0.000006 -0.000006 -0.005856 -0.069518 -19.402300
